<svg width="12" height="12" viewBox="0 0 12 12" fill="none" xmlns="http://www.w3.org/2000/svg" xmlns:xlink="http://www.w3.org/1999/xlink">
<path d="M4.823,0.194C4.234,0.194 3.669,0.428 3.252,0.845C2.836,1.261 2.602,1.826 2.602,2.416C2.602,3.005 2.836,3.57 3.252,3.986C3.669,4.403 4.234,4.637 4.823,4.637C5.412,4.637 5.977,4.403 6.394,3.986C6.81,3.57 7.044,3.005 7.044,2.416C7.044,1.826 6.81,1.261 6.394,0.845C5.977,0.428 5.412,0.194 4.823,0.194ZM4.823,1.305C5.118,1.305 5.4,1.422 5.608,1.63C5.817,1.839 5.934,2.121 5.934,2.416C5.934,2.71 5.817,2.993 5.608,3.201C5.4,3.409 5.118,3.526 4.823,3.526C4.528,3.526 4.246,3.409 4.038,3.201C3.829,2.993 3.712,2.71 3.712,2.416C3.712,2.121 3.829,1.839 4.038,1.63C4.246,1.422 4.528,1.305 4.823,1.305ZM4.823,5.192C3.34,5.192 0.38,5.931 0.38,7.414L0.38,9.08L5.656,9.08C5.516,8.743 5.428,8.387 5.395,8.025L1.435,8.025L1.435,7.414C1.435,7.058 3.174,6.247 4.823,6.247C5.101,6.247 5.378,6.275 5.656,6.32C5.798,5.969 5.995,5.643 6.239,5.353C5.717,5.248 5.217,5.192 4.823,5.192ZM8.988,5.192C7.6,5.192 6.489,6.303 6.489,7.691C6.489,9.08 7.6,10.19 8.988,10.19C10.376,10.19 11.487,9.08 11.487,7.691C11.487,6.303 10.376,5.192 8.988,5.192ZM8.988,6.025C9.91,6.025 10.654,6.769 10.654,7.691C10.654,8.002 10.571,8.291 10.421,8.524L8.155,6.259C8.388,6.109 8.677,6.025 8.988,6.025ZM7.555,6.858L9.821,9.124C9.588,9.274 9.299,9.357 8.988,9.357C8.066,9.357 7.322,8.613 7.322,7.691C7.322,7.38 7.405,7.092 7.555,6.858Z" fill="#98A9BC"/>
</svg>
