<svg width="14" height="10" viewBox="0 0 14 10" fill="none" xmlns="http://www.w3.org/2000/svg" xmlns:xlink="http://www.w3.org/1999/xlink">
<path d="M8.33,0.221C7.741,0.221 7.176,0.455 6.759,0.872C6.343,1.288 6.109,1.853 6.109,2.443C6.109,3.032 6.343,3.597 6.759,4.013C7.176,4.43 7.741,4.664 8.33,4.664C8.919,4.664 9.484,4.43 9.901,4.013C10.317,3.597 10.551,3.032 10.551,2.443C10.551,1.853 10.317,1.288 9.901,0.872C9.484,0.455 8.919,0.221 8.33,0.221ZM8.33,1.276C8.974,1.276 9.496,1.798 9.496,2.443C9.496,3.087 8.974,3.609 8.33,3.609C8.021,3.609 7.724,3.486 7.505,3.267C7.287,3.048 7.164,2.752 7.164,2.443C7.164,2.133 7.287,1.837 7.505,1.618C7.724,1.399 8.021,1.276 8.33,1.276ZM2.221,1.887L2.221,3.553L0.555,3.553L0.555,4.664L2.221,4.664L2.221,6.33L3.332,6.33L3.332,4.664L4.998,4.664L4.998,3.553L3.332,3.553L3.332,1.887L2.221,1.887ZM8.33,5.219C6.847,5.219 3.887,5.958 3.887,7.441L3.887,9.107L12.773,9.107L12.773,7.441C12.773,5.958 9.813,5.219 8.33,5.219ZM8.33,6.274C9.979,6.274 11.718,7.085 11.718,7.441L11.718,8.052L4.943,8.052L4.943,7.441C4.943,7.085 6.664,6.274 8.33,6.274Z" fill="#98A9BC"/>
</svg>
