<svg width="46" height="40" viewBox="0 0 46 40" fill="none" xmlns="http://www.w3.org/2000/svg" xmlns:xlink="http://www.w3.org/1999/xlink">
<path d="M14.439,11.667L12.939,11.667L14.439,11.667ZM22.133,18.333L22.133,19.833L22.133,18.333ZM29.826,11.667L31.326,11.667L29.826,11.667ZM22.133,5L22.133,3.5L22.133,5ZM12.939,11.667C12.939,13.908 13.969,16.005 15.71,17.514L17.675,15.247C16.531,14.256 15.939,12.962 15.939,11.667L12.939,11.667ZM15.71,17.514C17.446,19.018 19.758,19.833 22.133,19.833L22.133,16.833C20.426,16.833 18.826,16.244 17.675,15.247L15.71,17.514ZM22.133,19.833C24.507,19.833 26.82,19.018 28.555,17.514L26.591,15.247C25.44,16.244 23.839,16.833 22.133,16.833L22.133,19.833ZM28.555,17.514C30.297,16.005 31.326,13.908 31.326,11.667L28.326,11.667C28.326,12.962 27.734,14.256 26.591,15.247L28.555,17.514ZM31.326,11.667C31.326,9.426 30.297,7.328 28.555,5.819L26.591,8.086C27.734,9.077 28.326,10.371 28.326,11.667L31.326,11.667ZM28.555,5.819C26.82,4.315 24.507,3.5 22.133,3.5L22.133,6.5C23.839,6.5 25.44,7.089 26.591,8.086L28.555,5.819ZM22.133,3.5C19.758,3.5 17.446,4.315 15.71,5.819L17.675,8.086C18.826,7.089 20.426,6.5 22.133,6.5L22.133,3.5ZM15.71,5.819C13.969,7.328 12.939,9.426 12.939,11.667L15.939,11.667C15.939,10.371 16.531,9.077 17.675,8.086L15.71,5.819Z" fill="#778CA2"/>
<path d="M9.093,35C9.093,35.828 9.764,36.5 10.593,36.5C11.421,36.5 12.093,35.828 12.093,35L9.093,35ZM18.286,25L18.286,23.5L18.286,25ZM27.594,26.677C28.403,26.858 29.204,26.348 29.384,25.539C29.564,24.731 29.055,23.929 28.246,23.749L27.594,26.677ZM12.093,35L12.093,31.667L9.093,31.667L9.093,35L12.093,35ZM12.093,31.667C12.093,30.371 12.685,29.077 13.828,28.086L11.864,25.819C10.122,27.328 9.093,29.426 9.093,31.667L12.093,31.667ZM13.828,28.086C14.979,27.089 16.58,26.5 18.286,26.5L18.286,23.5C15.912,23.5 13.599,24.315 11.864,25.819L13.828,28.086ZM18.286,26.5L25.98,26.5L25.98,23.5L18.286,23.5L18.286,26.5ZM25.98,26.5C26.537,26.5 27.077,26.562 27.594,26.677L28.246,23.749C27.52,23.588 26.761,23.5 25.98,23.5L25.98,26.5Z" fill="#778CA2"/>
<line x1="29.826" y1="30.167" x2="41.366" y2="30.167" stroke="#778CA2" stroke-width="1.5" stroke-miterlimit="3.999327" stroke-linecap="round" stroke-linejoin="round"/>
</svg>
